<?xml version="1.0" encoding="utf-8"?>
<!-- Generator: Adobe Illustrator 25.2.3, SVG Export Plug-In . SVG Version: 6.00 Build 0)  -->
<svg version="1.1" id="color_icon" xmlns="http://www.w3.org/2000/svg" xmlns:xlink="http://www.w3.org/1999/xlink" x="0px" y="0px"
	 viewBox="0 0 512 512" style="enable-background:new 0 0 512 512;" xml:space="preserve">
<style type="text/css">
	.st0{fill:#DBD8DD;}
	.st1{fill:#9A9EAF;}
	.st2{fill:#828A9E;}
	.st3{fill:#323C6B;}
	.st4{fill:#FFFFFF;}
</style>
<path class="st0" d="M71.8,68.5h368.4c7.3,0,13.2,5.9,13.2,13.2v26.1c0,7.3-5.9,13.2-13.2,13.2H71.8c-7.3,0-13.2-5.9-13.2-13.2V81.7
	C58.6,74.4,64.5,68.5,71.8,68.5z"/>
<path class="st1" d="M82.3,121l19.5,341.5c0.9,16.1,14.3,28.7,30.4,28.7h247.7c16.2,0,29.5-12.6,30.4-28.7L429.7,121H82.3z"/>
<path class="st2" d="M71.8,68.5h368.4c7.3,0,13.2,5.9,13.2,13.2v26.1c0,7.3-5.9,13.2-13.2,13.2H71.8c-7.3,0-13.2-5.9-13.2-13.2V81.7
	C58.6,74.4,64.5,68.5,71.8,68.5z"/>
<path class="st3" d="M440.2,124.5H71.8c-9.2,0-16.7-7.5-16.7-16.7V81.7c0-9.2,7.5-16.7,16.7-16.7h368.4c9.2,0,16.7,7.5,16.7,16.7
	v26.1C456.9,117,449.4,124.5,440.2,124.5L440.2,124.5z M71.8,72c-5.4,0-9.7,4.4-9.7,9.8v26.1c0,5.4,4.4,9.7,9.7,9.7h368.4
	c5.4,0,9.7-4.4,9.7-9.7V81.7c0-5.4-4.4-9.7-9.7-9.8H71.8z"/>
<path class="st2" d="M429.7,121.1l-19.5,341.4c-0.9,16.1-14.2,28.8-30.4,28.7h-27.4c16.2,0,29.5-12.6,30.4-28.7l19.5-341.4
	L429.7,121.1z"/>
<g>
	<path class="st3" d="M323.7,72H188.3c-1.9,0-3.5-1.5-3.5-3.5V53.3c0-17.3,14.1-31.4,31.4-31.4h79.5c17.3,0,31.4,14.1,31.4,31.4
		v15.2C327.2,70.4,325.6,72,323.7,72z M191.8,65h128.5V53.3c0-13.5-11-24.5-24.5-24.5h-79.5c-13.5,0-24.5,11-24.5,24.5L191.8,65z"/>
	<path class="st3" d="M333.4,444.2h-0.2c-1.9-0.1-3.4-1.7-3.2-3.7l15.7-269.3c0.1-1.9,1.6-3.3,3.5-3.3c0.1,0,0.1,0,0.2,0
		c1.9,0.1,3.4,1.7,3.3,3.7L336.8,441C336.7,442.8,335.2,444.2,333.4,444.2z"/>
	<path class="st3" d="M256,444.2c-1.9,0-3.5-1.5-3.5-3.5V171.5c0-1.9,1.5-3.5,3.5-3.5c1.9,0,3.5,1.5,3.5,3.5v269.3
		C259.5,442.7,257.9,444.2,256,444.2z"/>
	<path class="st3" d="M178.6,444.2c-1.8,0-3.4-1.4-3.5-3.3l-15.7-269.3c-0.1-1.9,1.3-3.5,3.3-3.7c1.9-0.1,3.5,1.3,3.7,3.3
		l15.7,269.3c0.1,1.9-1.3,3.5-3.2,3.7L178.6,444.2z"/>
	<path class="st3" d="M379.8,494.7H132.2c-18,0-32.9-14-33.9-32L78.8,121.2c-0.1-1.9,1.4-3.5,3.3-3.6c0.1,0,0.1,0,0.2,0h347.5
		c1.9,0,3.5,1.5,3.5,3.5c0,0.1,0,0.1,0,0.2l-19.5,341.5C412.7,480.6,397.8,494.7,379.8,494.7z M85.9,124.5l19.3,337.8
		c0.8,14.3,12.7,25.5,27,25.5h247.7c14.3,0,26.2-11.2,27-25.5l19.3-337.8H85.9z"/>
	<path class="st3" d="M38.1,83h-0.2c-1.9-0.1-3.4-1.8-3.2-3.7c0,0,0,0,0,0c1.2-19.7,17.5-35,37.2-35.1h38.9c1.9,0,3.5,1.5,3.5,3.5
		c0,1.9-1.5,3.5-3.5,3.5H71.8c-16,0.1-29.3,12.6-30.3,28.6C41.4,81.6,39.9,83,38.1,83z"/>
	<path class="st3" d="M159.1,51.2h-19c-1.9,0-3.5-1.5-3.5-3.5c0-1.9,1.5-3.5,3.5-3.5h19c1.9,0,3.5,1.5,3.5,3.5
		C162.6,49.7,161,51.2,159.1,51.2z"/>
	<path class="st3" d="M79.2,435c-1.8,0-3.4-1.4-3.5-3.3L70.9,347c-0.1-1.9,1.4-3.5,3.3-3.6c1.9-0.1,3.5,1.3,3.6,3.1c0,0,0,0.1,0,0.1
		l4.8,84.8c0.1,1.9-1.3,3.5-3.3,3.6L79.2,435z"/>
	<path class="st3" d="M73,326.9c-1.8,0-3.4-1.4-3.5-3.3l-1.4-25.1c-0.1-1.9,1.3-3.5,3.3-3.6c1.9-0.1,3.5,1.3,3.6,3.1
		c0,0,0,0.1,0,0.1l1.4,25.1c0.1,1.9-1.4,3.5-3.3,3.6L73,326.9z"/>
</g>
<path class="st4" d="M124,346.8c-2.6,0-4.7-2-4.8-4.6l-6.5-74.6c-0.2-2.7,1.9-5,4.6-5.1c2.7-0.2,5,1.9,5.1,4.6l6.5,74.6
	c0.2,2.7-1.9,5-4.6,5.1c0,0,0,0,0,0L124,346.8z"/>
<path class="st4" d="M115.9,251.1c-2.6,0-4.7-2-4.8-4.6l-1-9.3c-0.2-2.7,1.9-5,4.6-5.1c2.7-0.2,5,1.9,5.1,4.6l1,9.3
	c0.2,2.7-1.9,5-4.6,5.1c0,0,0,0,0,0L115.9,251.1z"/>
</svg>
