<svg enable-background="new 0 0 512 512" height="512" viewBox="0 0 512 512" width="512" xmlns="http://www.w3.org/2000/svg"><g id="_x32_0"><g><g><g><path d="m100.851 220.582 19.472 73.606c9.233 34.9 40.808 59.208 76.908 59.208h146.114l36.657-132.814z" fill="#7d73ff"/><g fill="#7063ce"><path d="m207.232 244.847c-5.523 0-10 4.477-10 10v98.55h20v-98.55c0-5.523-4.477-10-10-10z"/><path d="m310.533 244.847c-5.523 0-10 4.477-10 10v98.55h20v-98.55c0-5.523-4.477-10-10-10z"/><path d="m258.883 244.847c-5.523 0-10 4.477-10 10v98.55h20v-98.55c0-5.523-4.478-10-10-10z"/></g></g><g><path d="m396.509 160.78-10.986 39.802h-284.672c-5.523 0-10 4.477-10 10 0 5.523 4.477 10 10 10h279.151l-50.586 183.279h-157.574c-5.523 0-10 4.477-10 10 0 5.523 4.477 10 10 10h172.802l67.092-243.081h56.471c5.523 0 10-4.477 10-10 0-5.523-4.477-10-10-10z" fill="#6052a3"/><g fill="#7063ce"><circle cx="185.324" cy="447.343" r="23.482"/><circle cx="321.163" cy="447.343" r="23.482"/></g></g></g><path d="m259.919 174.923 23.174-40.132c1.742-3.017-.435-6.789-3.919-6.789h-7.624v-87.836c0-1.836-1.488-3.324-3.324-3.324h-24.45c-1.836 0-3.324 1.488-3.324 3.324v87.836h-7.625c-3.484 0-5.662 3.772-3.919 6.789l23.174 40.132c1.741 3.017 6.095 3.017 7.837 0z" fill="#15be79"/></g></g></svg>