<?xml version="1.0" encoding="utf-8"?>
<!-- Generator: Adobe Illustrator 25.2.3, SVG Export Plug-In . SVG Version: 6.00 Build 0)  -->
<svg version="1.1" id="Ebene_1" xmlns="http://www.w3.org/2000/svg" xmlns:xlink="http://www.w3.org/1999/xlink" x="0px" y="0px"
	 viewBox="0 0 512 512" style="enable-background:new 0 0 512 512;" xml:space="preserve">
<style type="text/css">
	.st0{fill:#91D2D9;}
	.st1{fill:#079299;}
	.st2{fill:#04ADBF;}
	.st3{fill:#E2B34B;}
</style>
<g id="_x32_0">
	<g>
		<g>
			<g>
				<path class="st0" d="M100.9,220.6l19.5,73.6c9.2,34.9,40.8,59.2,76.9,59.2h146.1L380,220.6H100.9z"/>
				<g>
					<path class="st1" d="M207.2,244.8c-5.5,0-10,4.5-10,10v98.6h20v-98.6C217.2,249.3,212.8,244.8,207.2,244.8z"/>
					<path class="st1" d="M310.5,244.8c-5.5,0-10,4.5-10,10v98.6h20v-98.6C320.5,249.3,316.1,244.8,310.5,244.8z"/>
					<path class="st1" d="M258.9,244.8c-5.5,0-10,4.5-10,10v98.6h20v-98.6C268.9,249.3,264.4,244.8,258.9,244.8z"/>
				</g>
			</g>
			<g>
				<path class="st2" d="M396.5,160.8l-11,39.8H100.9c-5.5,0-10,4.5-10,10s4.5,10,10,10H380l-50.6,183.3H171.8c-5.5,0-10,4.5-10,10
					s4.5,10,10,10h172.8l67.1-243.1h56.5c5.5,0,10-4.5,10-10s-4.5-10-10-10L396.5,160.8z"/>
				<g>
					<circle class="st1" cx="185.3" cy="447.3" r="23.5"/>
					<circle class="st1" cx="321.2" cy="447.3" r="23.5"/>
				</g>
			</g>
		</g>
		<path class="st3" d="M259.9,174.9l23.2-40.1c1.7-3-0.4-6.8-3.9-6.8h-7.6V40.2c0-1.8-1.5-3.3-3.3-3.3h-24.4c-1.8,0-3.3,1.5-3.3,3.3
			V128h-7.6c-3.5,0-5.7,3.8-3.9,6.8l23.2,40.1C253.8,177.9,258.2,177.9,259.9,174.9z"/>
	</g>
</g>
</svg>
