<?xml version="1.0" encoding="utf-8"?>
<!-- Generator: Adobe Illustrator 25.2.3, SVG Export Plug-In . SVG Version: 6.00 Build 0)  -->
<svg version="1.1" id="Ebene_1" xmlns="http://www.w3.org/2000/svg" xmlns:xlink="http://www.w3.org/1999/xlink" x="0px" y="0px"
	 viewBox="0 0 1152 512" style="enable-background:new 0 0 1152 512;" xml:space="preserve">
<style type="text/css">
	.st0{fill:#FFE0B2;}
	.st1{fill:#DFC49C;}
	.st2{fill:#A57F34;}
	.st3{fill:#E2B34B;}
	.st4{fill:#00BCD4;}
	.st5{fill:#00838F;}
	.st6{fill:#FFFFFF;}
	.st7{font-family:'CornerStoreJF';}
	.st8{font-size:210.6377px;}
</style>
<g id="_x30_05---Surfing">
	<g id="Icons" transform="translate(7 1)">
		<g>
			<path id="Shape" class="st0" d="M800.1,335.3l88.4,62.4c-4.7,31.2-15.4,61.3-31.4,88.5c-6.2,10.1-17.2,16.3-29.1,16.3h-65.7
				c-11.9,0-22.9-6.2-29.1-16.3c-16-27.2-26.7-57.3-31.4-88.5l88.4-62.4C793.1,333.2,797.1,333.2,800.1,335.3L800.1,335.3z"/>
			<path id="Shape_1_" class="st0" d="M790.2,139l-91.8,64.8C709.7,132,741.1,65,788.9,10.3c1.6-1.7,3.9-2.7,6.2-2.7
				c2.4,0,4.6,1,6.2,2.7C849.2,65,880.6,132,891.9,203.8L800.1,139C797.1,136.9,793.1,136.9,790.2,139z"/>
			<path id="Shape_2_" class="st0" d="M894.5,350.7l-94.5-66.6c-3-2.1-6.9-2.1-9.9,0l-94.5,66.6c-2.5-29.4-3-63.4-3-91.8l97.3-68.3
				c3-2.1,6.9-2.1,9.9,0l97.6,68.3C898,287.3,897,321.2,894.5,350.7z"/>
		</g>
		<path id="Shape_3_" class="st1" d="M865.4,381.4l23,16.3c-4.7,31.2-15.4,61.3-31.4,88.5c-6.2,10.1-17.2,16.3-29.1,16.3h-25.6
			c11.9,0,22.9-6.2,29.1-16.3C845.4,463.1,858.1,433.3,865.4,381.4z"/>
		<path id="Shape_4_" class="st1" d="M862.2,182.9c-13-60.7-40.4-117.3-79.9-165.2c2.5-3,4.7-5.5,6.6-7.4c1.6-1.7,3.9-2.7,6.2-2.7
			c2.4,0,4.6,1,6.2,2.7c47.8,54.7,79.2,121.8,90.5,193.5L862.2,182.9z"/>
		<path id="Shape_5_" class="st1" d="M894.5,350.7l-24.4-17.1c2.1-31.1,2.3-62.3,0.6-93.4l26.8,18.7
			C898,287.3,897,321.2,894.5,350.7L894.5,350.7z"/>
		<path id="Shape_6_" class="st2" d="M1059.7,322.6c-41.1,109.7-74.5,148.9-105,173.1c-5.5,4.4-12.3,6.7-19.4,6.7h-47.2l168.8-442.9
			c1.9,0.7,3.4,2.2,4.2,4.1C1092.3,147.2,1091.8,239.3,1059.7,322.6L1059.7,322.6z"/>
		<path id="Shape_7_" class="st3" d="M1056.9,59.5l-168.8,443h-59.7c11.9,0,22.9-6.2,29.1-16.3c21.2-35.8,40-88,40-214.1
			c0-15.9-0.9-31.8-2.7-47.5c32.8-70.3,87.3-128.1,155.6-164.9C1052.4,58.5,1054.9,58.5,1056.9,59.5z"/>
		<path id="Shape_8_" class="st4" d="M800.1,284.1c-3-2.1-6.9-2.1-9.9,0l-94.5,66.6c1.5,17.7,3.6,33.2,6.1,46.9l88.4-62.4
			c3-2.1,6.9-2.1,9.9,0l65.4,46.1l23,16.3c2.7-15.7,4.7-31.3,6.1-46.9l-24.4-17.1L800.1,284.1z"/>
		<path id="Shape_9_" class="st4" d="M800.1,190.2l70.7,49.8l26.8,18.9c-0.7-18.5-2.5-36.9-5.6-55.1l-29.7-20.9l-62.1-43.8
			c-3-2.1-6.9-2.1-9.9,0l-91.8,64.7c-3.1,18.2-5,36.6-5.6,55.1l97.3-68.3C792.9,188.3,797,188.2,800.1,190.2z"/>
		<path id="Shape_10_" class="st5" d="M894.5,350.7c-1.4,15.6-3.3,31.2-6.1,46.9l-23-16.3c2-14.2,3.7-30,4.7-47.8L894.5,350.7z"/>
		<path id="Shape_11_" class="st5" d="M870.7,240.2c-1.4-19.3-4.3-38.4-8.5-57.3l29.7,20.9c3.1,18.2,5,36.6,5.6,55.1L870.7,240.2z"
			/>
	</g>
	<g id="Outline">
		<path id="Shape_12_" class="st6" d="M691.2,503.5c0,4.7,3.8,8.5,8.5,8.5h392.5c4.7,0,8.5-3.8,8.5-8.5s-3.8-8.5-8.5-8.5H976.8
			c28.1-25,59.7-66.3,97.7-168.4c33-85.3,33.6-179.7,1.5-265.4c-1.7-4.2-5.1-7.5-9.3-9.1s-9-1.4-13,0.6
			c-62.1,33.3-113.3,84-147.2,145.7c-12.1-71.6-43.9-138.5-91.9-193c-3.3-3.3-7.7-5.1-12.4-5.1c-4.6,0-9.1,1.8-12.4,5.1
			c-48.9,55.7-81,124.2-92.6,197.4c-3.2,19.5-5.2,39.2-6,59v11.3c0,131.2,20.1,182.5,41.6,218.5c0.7,1.1,1.5,2.2,2.3,3.3h-35.4
			C695,494.9,691.2,498.8,691.2,503.5z M1058.1,320.6c-41.5,110.9-74.9,147.7-102.4,169.3c-8.5,6.6-14.2,5-48.7,5l158.2-413.9
			C1090.3,159.4,1087.8,243.9,1058.1,320.6z M1049.6,74.6L889.3,494.9h-20.1c0.8-1.1,1.6-2.2,2.3-3.3c21.6-36,41.6-87.4,41.6-218.5
			c0-10.9-1.1-31.9-2.6-45.7C940.7,163.8,989.1,110.6,1049.6,74.6z M713.3,209.6l88.8-62.5l88.8,62.5c1.6,10.8,3,21.7,3.8,33.2
			L812,184.3c-5.9-4.2-13.9-4.2-19.8,0l-82.8,58.5C710.3,231.3,711.7,220.3,713.3,209.6z M708.3,264.5l93.9-66l93.9,66
			c0.5,26.4,0,51.2-1.6,71.8L812,278.2c-5.9-4.2-13.9-4.2-19.8,0L710.1,336C708.8,315.7,708.3,290.9,708.3,264.5L708.3,264.5z
			 M711.8,355.8l90.4-63.7l90.4,63.7c-0.9,10.1-2,19.3-3.3,27.9l-76.8-54.4c-5.9-4.2-13.9-4.2-19.8,0L715.1,384
			C713.8,375.5,712.7,365.9,711.8,355.8L711.8,355.8z M802.1,17.1c42.1,48,71.2,106,84.3,168.4L812,133.1c-5.9-4.2-13.9-4.2-19.8,0
			l-74.4,52.4C731,123.1,760,65,802.1,17.1z M747.4,482.8c-14.6-24.8-24.4-52-29.2-80.4l83.9-59.1l83.9,59.1
			c-4.7,28.4-14.6,55.6-29.2,80.4c-4.7,7.6-13,12.1-21.8,12.1h-65.7C760.4,495,752.1,490.4,747.4,482.8z"/>
		<path id="Shape_13_" class="st6" d="M648.5,512h17.1c4.7,0,8.5-3.8,8.5-8.5s-3.8-8.5-8.5-8.5h-17.1c-4.7,0-8.5,3.8-8.5,8.5
			S643.8,512,648.5,512z"/>
		<path id="Shape_14_" class="st6" d="M1143.5,494.9h-17.1c-4.7,0-8.5,3.8-8.5,8.5s3.8,8.5,8.5,8.5h17.1c4.7,0,8.5-3.8,8.5-8.5
			S1148.2,494.9,1143.5,494.9z"/>
	</g>
</g>
<text transform="matrix(1 0 0 1 37.9473 278.4447)" class="st6 st7 st8">Cali</text>
<text transform="matrix(1 0 0 1 275.5713 403.7494)" class="st6 st7 st8">food</text>
</svg>
