<svg height="512" viewBox="0 0 60 60" width="512" xmlns="http://www.w3.org/2000/svg"><g id="005---Surfing" fill="none"><g id="Icons" transform="translate(7 1)"><g fill="#ffe0b2"><path id="Shape" d="m12.58 38.41 10.36 7.31c-.5550655 3.6594821-1.8041196 7.1792352-3.68 10.37-.727066 1.1864594-2.0184862 1.9098062-3.41 1.91h-7.7c-1.3915138-.0001938-2.68293405-.7235406-3.41-1.91-1.87588036-3.1907648-3.12493452-6.7105179-3.68-10.37l10.36-7.31c.3471643-.247178.8128357-.247178 1.16 0z"/><path id="Shape" d="m11.42 15.41-10.76 7.59c1.32772198-8.409096 5.00584544-16.27147494 10.61-22.68.1890717-.20195032.4533557-.31655286.73-.31655286s.5409283.11460254.73.31655286c5.6041546 6.40852506 9.282278 14.270904 10.61 22.68l-10.76-7.59c-.3471643-.247178-.8128357-.247178-1.16 0z"/><path id="Shape" d="m23.65 40.22-11.07-7.81c-.3471643-.247178-.8128357-.247178-1.16 0l-11.07 7.81c-.29-3.44-.35-7.43-.35-10.76l11.4-8c.3471643-.247178.8128357-.247178 1.16 0l11.44 8c.05 3.32-.06 7.3-.35 10.76z"/></g><path id="Shape" d="m20.24 43.81 2.7 1.91c-.5550655 3.6594821-1.8041196 7.1792352-3.68 10.37-.727066 1.1864594-2.0184862 1.9098062-3.41 1.91h-3c1.3915138-.0001938 2.682934-.7235406 3.41-1.91 1.63-2.7 3.12-6.19 3.98-12.28z" fill="#dfc49c"/><path id="Shape" d="m19.86 20.55c-1.5253443-7.109524-4.7353021-13.7489238-9.36-19.36.29-.35.55-.64.77-.87.1890717-.20195032.4533557-.31655286.73-.31655286s.5409283.11460254.73.31655286c5.6000203 6.41122136 9.2775587 14.2723495 10.61 22.68z" fill="#dfc49c"/><path id="Shape" d="m23.65 40.22-2.86-2c.2450701-3.6452141.2684465-7.3019506.07-10.95l3.14 2.19c.05 3.32-.06 7.3-.35 10.76z" fill="#dfc49c"/><path id="Shape" d="m43 36.92c-4.82 12.86-8.73 17.45-12.3 20.28-.6461605.5113623-1.4459765.7897124-2.27.79h-5.53l19.78-51.9c.2235064.08406802.401342.25827432.49.48 3.6535757 9.7976085 3.5931021 20.5939347-.17 30.35z" fill="#3f51b5"/><path id="Shape" d="m42.68 6.09-19.78 51.91h-7c1.3915138-.0001938 2.682934-.7235406 3.41-1.91 2.48-4.2 4.69-10.31 4.69-25.09.0029982-1.861345-.1038542-3.7212449-.32-5.57 3.8433463-8.2337178 10.2353174-15.0113811 18.23-19.33.2411374-.1229281.5257515-.12662439.77-.01z" fill="#0377bc"/><path id="Shape" d="m12.58 32.41c-.3471643-.247178-.8128357-.247178-1.16 0l-11.07 7.81c.18 2.07.42 3.89.71 5.5l10.36-7.31c.3471643-.247178.8128357-.247178 1.16 0l7.66 5.4 2.7 1.91c.32-1.84.55-3.67.71-5.5l-2.86-2z" fill="#00bcd4"/><path id="Shape" d="m12.58 21.41 8.28 5.84 3.14 2.21c-.0765947-2.1655803-.2970809-4.3236726-.66-6.46l-3.48-2.45-7.28-5.13c-.3471643-.247178-.8128357-.247178-1.16 0l-10.76 7.58c-.36484581 2.1360651-.58534525 4.2942869-.66 6.46l11.4-8c.3404332-.2719679.8177802-.2921945 1.18-.05z" fill="#00bcd4"/><path id="Shape" d="m23.65 40.22c-.16 1.83-.39 3.66-.71 5.5l-2.7-1.91c.24-1.66.43-3.52.55-5.6z" fill="#00838f"/><path id="Shape" d="m20.86 27.26c-.1664082-2.2583777-.5006647-4.5012389-1-6.71l3.48 2.45c.3629191 2.1363274.5834053 4.2944197.66 6.46z" fill="#00838f"/></g><g id="Outline" fill="#000"><path id="Shape" d="m6 59c0 .5522847.44771525 1 1 1h46c.5522847 0 1-.4477153 1-1s-.4477153-1-1-1h-13.53c3.29-2.93 7-7.77 11.45-19.73 3.8721745-9.9943665 3.9326832-21.0638995.17-31.1-.200783-.49206289-.5965385-.87889371-1.0930524-1.06840281-.4965138-.1895091-1.0493675-.16474287-1.5269476.06840281-7.2799631 3.9064149-13.2716786 9.8390816-17.25 17.08-1.420966-8.3934623-5.150132-16.22574971-10.77-22.62-.3844846-.38471336-.9060949-.60086233-1.45-.60086233s-1.0655154.21614897-1.45.60086233c-5.7281301 6.53083812-9.48990138 14.5501718-10.85 23.13-.37760142 2.2864291-.61139391 4.5942949-.7 6.91v1.33c0 15.37 2.35 21.39 4.88 25.61.08.13.18.26.27.39h-4.15c-.55228475 0-1 .4477153-1 1zm43-21.43c-4.86 13-8.78 17.31-12 19.84-1 .77-1.66.59-5.71.59l18.54-48.5c2.9432675 9.1760152 2.6503012 19.0839229-.83 28.07zm-1-28.83-18.79 49.26h-2.36c.09-.13.19-.26.27-.39 2.53-4.22 4.88-10.24 4.88-25.61 0-1.28-.13-3.74-.31-5.35 3.5441995-7.4526933 9.2205253-13.6858628 16.31-17.91zm-39.41 15.82 10.41-7.33 10.41 7.33c.19 1.26.35 2.54.45 3.89l-9.7-6.85c-.6943286-.4943561-1.6256714-.4943561-2.32 0l-9.7 6.86c.1-1.36.26-2.64.45-3.9zm-.59 6.44 11-7.74 11 7.74c.06 3.09 0 6-.19 8.41l-9.65-6.81c-.6943286-.4943561-1.6256714-.4943561-2.32 0l-9.62 6.78c-.16-2.38-.22-5.29-.22-8.38zm.41 10.7 10.59-7.47 10.59 7.47c-.11 1.18-.24 2.26-.39 3.27l-9-6.37c-.6943286-.4943561-1.6256714-.4943561-2.32 0l-9.08 6.4c-.15-1-.28-2.12-.39-3.3zm10.59-39.7c4.9358622 5.62102865 8.3387619 12.4199396 9.88 19.74l-8.72-6.14c-.6943286-.4943561-1.6256714-.4943561-2.32 0l-8.72 6.14c1.5412381-7.3200604 4.9441378-14.11897135 9.88-19.74zm-6.41 54.58c-1.7054997-2.9048917-2.86461758-6.0975498-3.42-9.42l9.83-6.93 9.83 6.93c-.5553824 3.3224502-1.7145003 6.5151083-3.42 9.42-.5488041.8858154-1.5179619 1.4233951-2.56 1.42h-7.7c-1.0420381.0033951-2.0111959-.5341846-2.56-1.42z"/><path id="Shape" d="m1 60h2c.55228475 0 1-.4477153 1-1s-.44771525-1-1-1h-2c-.55228475 0-1 .4477153-1 1s.44771525 1 1 1z"/><path id="Shape" d="m59 58h-2c-.5522847 0-1 .4477153-1 1s.4477153 1 1 1h2c.5522847 0 1-.4477153 1-1s-.4477153-1-1-1z"/></g></g></svg>