<svg id="Capa_1" enable-background="new 0 0 512 512" height="512" viewBox="0 0 512 512" width="512" xmlns="http://www.w3.org/2000/svg"><g><g><path d="m437.019 74.981c-48.352-48.352-112.639-74.981-181.019-74.981s-132.667 26.629-181.019 74.981-74.981 112.639-74.981 181.019 26.628 132.667 74.98 181.019c48.353 48.352 112.64 74.981 181.02 74.981s132.667-26.629 181.02-74.981c48.351-48.352 74.98-112.639 74.98-181.019s-26.629-132.667-74.981-181.019zm-46.289 166.631c-6.35 19.09-19.754 34.566-37.744 43.575-10.627 5.322-22.105 8.012-33.654 8.012-3.076 0-6.156-.195-9.228-.577l-44.323 133.462h-33.65l-101.721-294.443 28.356-9.796 89.961 260.405 32.926-99.142c-30.363-17.482-45.345-54.533-33.866-89.042 21.328-64.119 97.135-84.865 108.894-88.73 6.393 9.058 55.376 72.157 34.049 136.276z"/></g><path d="m334.78 218.32-14.895 44.851c6.753-.088 13.452-1.695 19.669-4.809 10.824-5.421 18.89-14.732 22.71-26.219 12.23-36.77-6.929-74.972-17.247-91.739-18.307 7.246-56.532 26.36-68.763 63.129-6.217 18.691.472 38.615 15.194 50.082l14.862-44.751z"/></g></svg>